# xmcd
#
# Track frame offsets: 
#        150
#        13715
#        29592
#        45192
#        60080
#        79315
#        93592
#        111460
#        123222
#        134067
#        146595
#
# Disc length: 2242 seconds
#
# Revision: 2
# Processed by: cddbd v1.5.2PL0 Copyright (c) Steve Scherf et al.
# Submitted via: ExactAudioCopy v0.95b4
#
DISCID=9308c00b
DTITLE=Chris LeDoux - The Capitol Collection (1990-2000) - Disc 1 (Wes
DTITLE=tern Underground)
DYEAR=2002
DGENRE=Country
TTITLE0=Country Fair
TTITLE1=Riding For A Fall
TTITLE2=Thank The Cowboy For The Ride
TTITLE3=Cadillac Cowboy
TTITLE4=This Cowboy's Hat
TTITLE5=Shot Full Of Love
TTITLE6=The Last Drive-In
TTITLE7=Yellow Brick Road Turn Blue
TTITLE8=Settin' The Woods On Fire
TTITLE9=Workin' Man Dollar
TTITLE10=Homegrown Western Saturday Night
EXTD=
EXTT0=
EXTT1=
EXTT2=
EXTT3=
EXTT4=
EXTT5=
EXTT6=
EXTT7=
EXTT8=
EXTT9=
EXTT10=
PLAYORDER=
